<svg width="16" height="13" viewBox="0 0 16 13" fill="none" xmlns="http://www.w3.org/2000/svg">
<path fill-rule="evenodd" clip-rule="evenodd" d="M15.8361 5.50059H14.4154C13.9332 2.38845 11.2478 0.00386429 7.99776 0.00386429C5.49175 0.00386429 3.32053 1.42253 2.23468 3.4973L3.16613 3.86958C4.10007 2.16159 5.9135 1.00327 7.99776 1.00327C10.6947 1.00327 12.9338 2.94262 13.405 5.50059H11.6981C11.5431 5.651 11.3952 5.74346 11.6171 6.0038L13.481 7.89968C13.6359 8.04959 13.8862 8.04959 14.0402 7.89968L15.917 6.0038C16.0714 5.85339 15.9905 5.651 15.8361 5.50059ZM7.99776 11.9967C5.47976 11.9967 3.35951 10.3057 2.7069 7.99911H4.33144C4.48634 7.8492 4.56679 7.64633 4.41288 7.49642L2.536 5.60002C2.38159 5.45011 2.13124 5.45011 1.97683 5.60002L0.112449 7.49642C-0.108919 7.75676 0.0389867 7.8492 0.193395 7.99911H1.683C2.3606 10.8624 4.92459 12.9961 7.99776 12.9961C10.3364 12.9961 12.3801 11.7589 13.526 9.90797L12.585 9.53219C11.6001 11.0168 9.91412 11.9967 7.99776 11.9967Z" fill="white"/>
</svg>
