<?xml version="1.0" standalone="no"?>
<!DOCTYPE svg PUBLIC "-//W3C//DTD SVG 20010904//EN"
 "http://www.w3.org/TR/2001/REC-SVG-20010904/DTD/svg10.dtd">
<svg version="1.0" xmlns="http://www.w3.org/2000/svg"
 width="1024pt" height="1024pt" viewBox="0 0 1024.000000 1024.000000"
 preserveAspectRatio="xMidYMid meet">

<g transform="translate(0.000000,1024.000000) scale(0.100000,-0.100000)"
fill="#000000" stroke="none">
<path d="M5018 9164 c-108 -19 -219 -62 -356 -137 -179 -99 -254 -127 -337
-127 -74 1 -122 15 -171 50 -52 37 -88 37 -117 -1 -17 -24 -18 -31 -7 -64 12
-36 65 -98 108 -125 23 -15 23 -16 -85 -128 l-108 -112 -63 0 c-54 0 -67 -4
-87 -25 -30 -29 -33 -73 -7 -104 20 -26 80 -42 128 -34 40 7 41 1 12 -63 -20
-43 -23 -64 -22 -164 2 -113 22 -214 65 -318 11 -26 11 -36 1 -50 -41 -56 -68
-168 -57 -241 3 -25 19 -74 36 -107 51 -107 133 -173 243 -198 47 -11 49 -12
66 -66 41 -131 136 -285 243 -391 l57 -57 0 -125 0 -125 -67 -12 c-121 -20
-263 -60 -498 -137 -416 -137 -774 -341 -1005 -573 -73 -72 -170 -191 -227
-275 -24 -35 -40 -50 -44 -42 -3 6 -9 50 -13 97 -3 47 -24 317 -46 600 -22
283 -40 539 -40 568 0 53 1 55 64 117 71 70 136 161 165 227 10 24 30 108 45
188 31 163 31 162 98 247 99 126 104 202 15 280 -52 46 -119 59 -199 38 -34
-8 -79 -27 -98 -40 l-35 -25 -5 262 c-5 251 -6 265 -29 311 -31 64 -85 100
-152 101 -49 1 -51 3 -63 37 -38 108 -138 164 -233 128 -39 -15 -91 -67 -103
-105 -10 -30 -14 -32 -66 -36 -90 -8 -124 -47 -139 -158 l-5 -45 -50 -1 c-43
0 -55 -5 -85 -34 -70 -68 -68 -54 -77 -579 -6 -401 -5 -485 7 -545 17 -83 61
-175 114 -239 l38 -46 -4 -98 c-3 -54 -16 -228 -29 -388 -14 -159 -33 -398
-44 -530 -35 -456 -54 -635 -66 -635 -15 0 -78 -70 -101 -112 -15 -28 -18 -57
-18 -178 0 -161 2 -167 88 -294 39 -58 40 -60 24 -85 -61 -95 -85 -209 -68
-317 13 -85 67 -199 137 -291 139 -182 236 -223 530 -223 188 0 218 7 375 85
137 69 238 146 420 321 134 128 218 200 395 337 33 26 63 47 66 47 3 0 7 -598
7 -1330 l2 -1330 -684 0 c-650 0 -685 -1 -700 -18 -23 -25 -21 -64 3 -95 l20
-25 2827 -1 c1642 0 2895 3 2990 9 113 6 172 6 191 -1 15 -6 57 -12 94 -12 61
-2 69 0 97 27 37 35 39 65 8 94 -22 21 -32 22 -203 22 l-179 0 1 293 c1 256 3
297 18 319 18 28 51 207 62 335 9 110 -1 163 -41 223 l-34 51 -3 877 c-4 848
-5 881 -26 997 -53 295 -165 559 -327 770 -63 83 -232 252 -324 325 -137 108
-343 219 -581 312 -280 110 -677 218 -801 218 -5 0 -9 58 -9 134 0 73 -5 157
-10 186 -8 42 -7 57 4 69 7 9 26 41 41 71 15 30 36 67 47 83 45 63 98 240 98
327 0 36 3 40 43 58 60 27 126 96 170 180 34 64 39 81 39 140 0 110 -14 145
-94 244 l-27 34 19 124 c35 222 25 333 -39 465 -77 156 -204 247 -376 268
l-86 11 -32 60 c-37 70 -126 148 -223 196 -128 63 -327 85 -496 54z m315 -133
c41 -11 95 -30 118 -41 71 -37 145 -115 183 -194 43 -92 61 -102 153 -87 98
17 158 -6 242 -93 88 -93 105 -135 105 -271 1 -88 -19 -311 -29 -323 -1 -1
-31 4 -66 12 -225 53 -397 234 -415 436 -7 87 -16 100 -69 100 -33 0 -81 -24
-89 -45 -13 -34 -5 -106 18 -169 75 -209 250 -384 427 -429 l54 -14 7 -54 c10
-89 9 -462 -3 -544 -29 -211 -147 -433 -284 -537 -106 -80 -256 -141 -386
-157 -157 -20 -360 22 -523 107 -131 68 -276 229 -342 379 -28 63 -95 290
-124 421 l-20 94 34 76 c41 92 66 184 66 245 0 75 4 79 57 56 130 -55 360 -22
579 83 192 93 375 321 392 489 3 38 0 51 -17 68 -12 12 -34 21 -50 21 -46 0
-69 -27 -85 -102 -18 -92 -54 -150 -150 -241 -136 -131 -297 -197 -484 -197
-97 0 -178 20 -244 60 -36 22 -79 26 -108 10 -36 -19 -40 -42 -21 -115 16 -61
17 -76 5 -137 -7 -38 -30 -106 -50 -151 -71 -161 -71 -157 -45 -277 12 -58 25
-116 28 -129 l6 -24 -33 19 c-77 45 -130 144 -116 219 4 20 20 69 37 110 37
92 36 125 -1 219 -57 141 -63 257 -21 365 26 64 27 110 4 127 -10 7 -16 14
-13 17 3 2 26 18 52 36 26 17 62 53 79 79 18 26 47 64 65 84 31 35 38 51 46
103 3 18 13 21 122 26 120 6 135 11 136 49 1 20 355 194 435 214 129 32 232
34 338 7z m-3040 -609 c8 -9 20 -28 25 -42 5 -14 6 -171 2 -370 -4 -190 -3
-354 1 -366 19 -54 71 -70 105 -33 18 20 19 44 24 333 5 311 5 311 27 314 16
2 26 -5 38 -27 13 -26 17 -87 22 -348 7 -388 10 -377 -95 -417 -91 -35 -175
-90 -233 -153 -55 -58 -61 -68 -88 -152 -23 -71 -27 -151 -9 -169 18 -18 73
-15 96 6 12 10 24 41 31 76 24 130 97 199 274 261 49 18 53 21 139 148 55 82
81 109 127 139 50 31 95 36 129 12 34 -23 27 -46 -33 -113 -76 -85 -93 -124
-110 -249 -33 -232 -71 -304 -227 -429 -77 -61 -77 -62 -58 -205 5 -40 21
-237 35 -438 30 -428 35 -491 76 -833 17 -142 29 -260 26 -263 -12 -12 -497
-16 -597 -5 -193 21 -180 16 -180 65 0 24 7 110 15 192 8 82 21 250 30 374 8
124 26 324 39 445 13 121 27 267 31 325 3 58 14 136 24 174 10 38 16 77 14 86
-3 9 -29 45 -59 80 -91 104 -136 215 -137 344 -2 196 17 863 25 879 12 23 31
22 54 -4 18 -20 19 -36 16 -230 l-3 -209 27 -25 c32 -29 79 -33 92 -7 15 28
24 386 13 509 -13 140 -7 183 24 183 16 0 25 -8 29 -26 4 -14 4 -141 0 -282
-7 -272 -2 -324 37 -363 25 -25 71 -24 95 2 14 15 18 34 17 67 -1 26 -6 198
-10 382 -7 278 -6 339 5 358 17 26 53 29 75 4z m3885 -565 c65 -63 74 -177 21
-264 -19 -30 -55 -63 -70 -63 -3 0 -11 77 -18 170 -7 94 -15 178 -18 187 -10
27 47 6 85 -30z m-383 -1234 c10 -113 25 -184 56 -262 23 -57 30 -91 31 -152
2 -77 0 -83 -47 -175 -55 -106 -130 -196 -203 -243 -27 -17 -89 -45 -138 -62
-74 -26 -110 -32 -211 -36 -113 -5 -128 -4 -210 22 -189 58 -302 150 -388 315
-49 93 -50 97 -48 180 0 58 7 98 19 125 12 28 19 76 23 162 l6 123 76 -40 c42
-22 116 -51 165 -66 82 -25 103 -28 264 -28 l175 -1 110 37 c110 37 195 82
264 138 20 16 39 29 43 30 3 0 9 -30 13 -67z m475 -364 c235 -73 326 -103 435
-143 154 -56 410 -189 511 -264 303 -227 495 -513 594 -884 62 -234 62 -233
65 -1148 2 -727 5 -845 19 -910 9 -41 16 -75 16 -75 0 0 -185 0 -410 0 l-411
0 2 984 c1 935 0 986 -17 998 -27 20 -62 16 -89 -12 l-25 -24 0 -1521 0 -1520
-1646 0 -1646 0 7 117 c4 65 4 757 0 1538 l-8 1419 -28 28 c-34 35 -71 36 -97
3 -18 -22 -19 -37 -15 -152 l4 -128 -63 -42 c-127 -84 -459 -372 -631 -546
-65 -66 -120 -117 -123 -114 -3 3 8 25 24 49 37 53 82 159 82 191 0 38 -39
214 -67 304 l-25 83 48 53 c27 29 62 80 79 113 28 56 29 66 30 184 0 117 -2
129 -28 183 -18 36 -39 63 -58 72 -35 19 -49 43 -49 89 0 23 6 38 18 45 9 5
33 35 52 68 187 312 410 515 755 690 179 91 298 140 460 193 135 44 410 120
432 120 9 0 13 -16 13 -48 0 -89 21 -165 73 -267 42 -82 67 -116 137 -186 93
-93 166 -140 293 -184 42 -15 77 -28 77 -29 0 0 -7 -23 -16 -51 -13 -43 -15
-140 -14 -705 l1 -655 30 -30 29 -30 193 3 192 4 33 31 c18 17 36 45 40 62 4
16 5 300 2 630 -5 597 -5 600 -28 657 -13 32 -30 62 -39 66 -11 7 10 19 80 46
171 66 253 137 367 314 66 103 96 186 112 303 l13 90 30 -7 c16 -4 100 -28
185 -55z m-864 -816 c9 -147 6 -1175 -4 -1184 -4 -4 -59 -9 -123 -11 l-117 -4
-4 190 c-9 382 0 1028 14 1076 l14 45 99 6 c55 3 103 6 106 7 3 1 10 -55 15
-125z m-3517 -473 c181 -28 544 -22 735 11 l59 10 34 -34 c46 -45 52 -91 25
-199 -11 -46 -23 -95 -26 -111 -15 -66 -102 -127 -231 -164 -118 -34 -421 -26
-580 13 -158 40 -215 131 -215 343 0 58 2 64 42 107 34 37 46 44 67 40 14 -3
55 -10 90 -16z m779 -562 c-1 -13 3 -86 7 -164 7 -131 6 -145 -15 -210 -50
-153 -90 -201 -215 -257 -69 -31 -73 -32 -220 -32 -138 0 -154 2 -193 23 -120
64 -249 244 -267 372 -4 26 0 86 9 139 8 52 13 98 10 103 -8 13 10 9 58 -12
82 -36 218 -53 378 -47 159 6 250 25 367 75 84 37 81 37 81 10z m4816 -1716
c244 -2 373 0 404 8 24 6 47 9 49 6 3 -3 -2 -24 -11 -48 -10 -23 -22 -83 -28
-133 -5 -49 -11 -91 -12 -92 -7 -7 -112 -25 -201 -34 -101 -11 -186 -3 -340
31 -27 6 -95 15 -150 20 -55 4 -101 9 -102 9 -2 1 -3 58 -3 127 0 117 1 126
18 118 9 -4 179 -10 376 -12z m392 -501 c-3 -41 -6 -159 -6 -263 l0 -188 -390
0 -390 0 2 258 3 257 55 5 c30 3 207 5 394 5 l339 0 -7 -74z"/>
<path d="M4695 8421 c-99 -86 -192 -103 -291 -51 -74 39 -123 38 -142 -2 -11
-24 -11 -33 4 -63 18 -39 45 -56 114 -75 173 -47 312 -22 419 76 48 43 58 75
34 114 -13 23 -56 50 -79 50 -2 0 -28 -22 -59 -49z"/>
<path d="M5640 7801 c-66 -66 -120 -73 -175 -21 -35 33 -71 35 -99 6 -15 -14
-26 -34 -26 -44 0 -34 44 -86 99 -114 117 -61 243 -18 318 109 l26 45 -20 26
c-11 14 -32 29 -47 33 -25 7 -34 2 -76 -40z"/>
<path d="M4805 7688 c-65 -76 -102 -85 -170 -38 -51 35 -73 37 -109 9 -32 -25
-33 -43 -3 -86 79 -116 282 -108 374 15 38 50 42 93 13 122 -32 32 -64 25
-105 -22z"/>
<path d="M5438 7273 c-8 -10 -20 -32 -27 -49 -29 -75 -117 -124 -220 -124 -63
0 -116 21 -175 69 -21 17 -49 31 -62 31 -26 0 -64 -35 -64 -59 0 -30 46 -92
93 -125 65 -47 119 -59 229 -54 75 3 104 10 150 32 92 44 209 187 193 236 -8
27 -53 60 -80 60 -12 0 -29 -8 -37 -17z"/>
<path d="M5987 4798 c-25 -40 -28 -74 -9 -97 16 -21 26 -22 289 -26 272 -5
272 -5 288 17 20 30 19 71 -4 99 -19 24 -19 24 -285 27 l-265 3 -14 -23z"/>
<path d="M4093 3845 c-44 -44 -41 -60 34 -175 115 -175 270 -349 322 -363 11
-3 35 3 53 12 26 13 34 23 36 50 3 31 -4 41 -106 140 -119 116 -144 150 -192
262 -17 40 -38 82 -47 91 -25 28 -61 22 -100 -17z"/>
<path d="M5242 5253 c-75 -37 -47 -130 45 -149 26 -5 37 -1 57 19 38 38 35 77
-9 116 -41 35 -48 37 -93 14z"/>
<path d="M5235 4705 c-47 -46 -23 -109 52 -136 77 -26 111 60 52 134 -27 35
-71 36 -104 2z"/>
<path d="M1846 4693 c-3 -4 -6 -28 -6 -54 l0 -47 51 -11 c99 -21 340 -33 463
-23 142 12 169 25 164 80 -3 34 -6 37 -43 43 -55 9 -621 20 -629 12z"/>
<path d="M2892 8428 c-26 -26 -13 -57 36 -90 26 -18 82 -68 124 -111 87 -88
122 -150 163 -292 32 -111 47 -135 83 -135 39 0 52 17 52 70 0 54 -41 214 -71
273 -51 102 -141 190 -280 275 -40 24 -88 29 -107 10z"/>
<path d="M7640 8422 c-44 -21 -140 -118 -268 -269 -134 -159 -129 -156 -161
-113 -76 101 -125 114 -174 48 -25 -34 -14 -68 47 -146 53 -67 91 -92 140 -92
67 0 109 32 212 162 53 68 143 168 199 223 56 55 104 108 108 118 12 32 -28
88 -61 87 -4 0 -23 -8 -42 -18z"/>
<path d="M3276 7545 c-8 -8 -19 -39 -25 -68 -57 -277 -57 -261 6 -273 49 -9
69 15 82 96 14 84 14 216 1 241 -13 23 -43 25 -64 4z"/>
<path d="M1818 1743 c-39 -6 -71 -50 -64 -87 13 -62 50 -80 133 -65 71 13 103
40 103 86 0 23 -7 37 -22 47 -25 16 -107 26 -150 19z"/>
</g>
</svg>
