<svg width="16" height="15" viewBox="0 0 16 15" fill="none" xmlns="http://www.w3.org/2000/svg">
<path id="plus" fill-rule="evenodd" clip-rule="evenodd" d="M7.52911 0C7.81327 0 8.0858 0.112882 8.28673 0.313814C8.48766 0.514746 8.60054 0.787268 8.60054 1.07143V6.42857H13.9577C14.2418 6.42857 14.5144 6.54145 14.7153 6.74239C14.9162 6.94332 15.0291 7.21584 15.0291 7.5C15.0291 7.78416 14.9162 8.05668 14.7153 8.25761C14.5144 8.45855 14.2418 8.57143 13.9577 8.57143H8.60054V13.9286C8.60054 14.2127 8.48766 14.4853 8.28673 14.6862C8.0858 14.8871 7.81327 15 7.52911 15C7.24495 15 6.97243 14.8871 6.7715 14.6862C6.57057 14.4853 6.45768 14.2127 6.45768 13.9286V8.57143H1.10054C0.816382 8.57143 0.54386 8.45855 0.342928 8.25761C0.141996 8.05668 0.0291138 7.78416 0.0291138 7.5C0.0291138 7.21584 0.141996 6.94332 0.342928 6.74239C0.54386 6.54145 0.816382 6.42857 1.10054 6.42857H6.45768V1.07143C6.45768 0.787268 6.57057 0.514746 6.7715 0.313814C6.97243 0.112882 7.24495 0 7.52911 0Z" fill="#0D0D0D"/>
</svg>
