<svg xmlns="http://www.w3.org/2000/svg" width="13" height="12" viewBox="0 0 13 12" fill="none">
  <path d="M6.5 3.54663C6.75044 3.54663 6.95349 3.74967 6.95349 4.00012V7.02338C6.95349 7.27383 6.75044 7.47687 6.5 7.47687C6.24955 7.47687 6.04651 7.27383 6.04651 7.02338V4.00012C6.04651 3.74967 6.24955 3.54663 6.5 3.54663Z" fill="#FF9C9C" stroke="black" stroke-width="0.00064"/>
  <path d="M6.50004 9.44197C6.83399 9.44197 7.10469 9.17127 7.10469 8.83732C7.10469 8.50337 6.83399 8.23267 6.50004 8.23267C6.16609 8.23267 5.89539 8.50337 5.89539 8.83732C5.89539 9.17127 6.16609 9.44197 6.50004 9.44197Z" fill="#FF9C9C" stroke="black" stroke-width="0.00064"/>
  <path fill-rule="evenodd" clip-rule="evenodd" d="M4.25941 1.45089C4.90754 0.627657 5.59412 0.104675 6.50001 0.104675C7.40584 0.104675 8.09242 0.627657 8.7406 1.45089C9.37803 2.26052 10.0535 3.45821 10.9178 4.99056L11.1811 5.45748C11.8956 6.72416 12.4598 7.72468 12.7562 8.52772C13.0591 9.34835 13.1311 10.0935 12.6729 10.7507C12.2282 11.3886 11.4863 11.6495 10.5506 11.7727C9.61856 11.8954 8.36506 11.8954 6.75686 11.8954H6.24315C4.63497 11.8954 3.38145 11.8954 2.44934 11.7727C1.51363 11.6495 0.77176 11.3886 0.327111 10.7507C-0.1311 10.0935 -0.0591469 9.34835 0.243759 8.52772C0.54016 7.72468 1.10445 6.72422 1.8189 5.45748L2.08219 4.99068C2.94647 3.45825 3.62198 2.26054 4.25941 1.45089ZM4.97203 2.01194C4.3831 2.75999 3.74101 3.89577 2.8509 5.47392L2.63102 5.8638C1.88958 7.17838 1.36269 8.11547 1.09463 8.84177C0.830006 9.55871 0.866696 9.93879 1.07113 10.232C1.28913 10.5448 1.6983 10.759 2.56771 10.8735C3.43356 10.9874 4.62716 10.9884 6.2801 10.9884H6.71986C8.37286 10.9884 9.56644 10.9874 10.4323 10.8735C11.3017 10.759 11.7108 10.5448 11.9289 10.232C12.1333 9.93879 12.17 9.55871 11.9054 8.84177C11.6373 8.11547 11.1104 7.17838 10.369 5.8638L10.1491 5.47392C9.25897 3.89576 8.61689 2.75999 8.02796 2.01193C7.44447 1.27084 6.99135 1.01165 6.50001 1.01165C6.00867 1.01165 5.55548 1.27084 4.97203 2.01194Z" fill="#FF9C9C" stroke="black" stroke-width="0.00064"/>
</svg>