<svg width="2.5" height="2" viewBox="0 0 15 15" fill="none" xmlns="http://www.w3.org/2000/svg">
<path id="Vector" d="M9.75 11.8333H5.25M13.5 1H12.75M12.75 1H2.25M12.75 1C12.75 2.81294 11.8408 4.51428 10.3088 5.56802L7.5 7.5M2.25 1H1.5M2.25 1C2.25 2.81294 3.15921 4.51428 4.6912 5.56802L7.5 7.5M7.5 7.5L10.3088 9.43194C11.8408 10.4857 12.75 12.1871 12.75 14M7.5 7.5L4.6912 9.43194C3.15921 10.4857 2.25 12.1871 2.25 14M13.5 14H12.75M12.75 14H2.25M2.25 14H1.5" stroke="white" stroke-width="1.5" stroke-linecap="round" stroke-linejoin="round"/>
</svg>
