<svg width="16" height="14" viewBox="0 0 16 14" fill="none" xmlns="http://www.w3.org/2000/svg">
<path fill-rule="evenodd" clip-rule="evenodd" d="M0 3.44444V8.86879C0 10.3011 1.1293 11.4698 2.5461 11.5328C2.86601 12.6206 3.3402 13.2222 4.18123 13.2222C4.85386 13.2222 5.67836 12.681 6.96407 11.5355H13.3333C14.8061 11.5355 16 10.3416 16 8.86879V3.44444C16 1.97168 14.8061 0.777771 13.3333 0.777771H2.66667C1.19391 0.777771 0 1.97168 0 3.44444ZM6.2793 9.75768L6.02503 9.98888C5.25709 10.6868 4.6531 11.1479 4.36366 11.3411C4.27878 11.1411 4.19219 10.8463 4.11229 10.4645L3.96438 9.75768H2.66667C2.17575 9.75768 1.77778 9.35973 1.77778 8.86879V3.44444C1.77778 2.95352 2.17575 2.55555 2.66667 2.55555H13.3333C13.8243 2.55555 14.2222 2.95352 14.2222 3.44444V8.86879C14.2222 9.35973 13.8243 9.75768 13.3333 9.75768H6.2793Z" fill="#C7C7C7" stroke="#C7C7C7" stroke-width="0.00064"/>
</svg>
