<svg width="16" height="16" viewBox="0 0 16 16" fill="none" xmlns="http://www.w3.org/2000/svg">
<path d="M5.66667 11.8772H10.3333M1 10.0035V8.07531C1 7.17851 1 6.73007 1.11515 6.31714C1.21716 5.95134 1.38479 5.60731 1.60982 5.30192C1.86385 4.95716 2.21648 4.68186 2.92172 4.13128L4.94394 2.55252C6.03695 1.6992 6.58343 1.27254 7.18691 1.10853C7.71938 0.963822 8.28062 0.963822 8.81309 1.10853C9.41657 1.27254 9.96303 1.69921 11.056 2.55252L13.0783 4.13128C13.7836 4.68186 14.1361 4.95716 14.3901 5.30192C14.6152 5.60731 14.7828 5.95134 14.8848 6.31714C15 6.73007 15 7.17851 15 8.07531V10.0035C15 11.7524 15 12.627 14.6609 13.2949C14.3626 13.8825 13.8867 14.3603 13.3013 14.6597C12.6358 15 11.7646 15 10.0222 15H5.97778C4.23539 15 3.3642 15 2.6987 14.6597C2.1133 14.3603 1.63737 13.8825 1.33909 13.2949C1 12.627 1 11.7524 1 10.0035Z" stroke="#C7C7C7" stroke-width="1.5" stroke-linecap="round" stroke-linejoin="round"/>
</svg>
