<svg width="16" height="16" viewBox="0 0 16 16" fill="none" xmlns="http://www.w3.org/2000/svg">
<path d="M15 8.875V2.75C15 2.28587 14.8156 1.84075 14.4874 1.51256C14.1592 1.18437 13.7141 1 13.25 1H2.75C2.28587 1 1.84075 1.18437 1.51256 1.51256C1.18437 1.84075 1 2.28587 1 2.75V8.875M15 8.875V13.25C15 13.7141 14.8156 14.1592 14.4874 14.4874C14.1592 14.8156 13.7141 15 13.25 15H2.75C2.28587 15 1.84075 14.8156 1.51256 14.4874C1.18437 14.1592 1 13.7141 1 13.25V8.875M15 8.875H12.7372C12.5052 8.87505 12.2827 8.96727 12.1186 9.13138L10.0064 11.2436C9.84232 11.4077 9.6198 11.5 9.38775 11.5H6.61225C6.3802 11.5 6.15768 11.4077 5.99362 11.2436L3.88138 9.13138C3.71732 8.96727 3.4948 8.87505 3.26275 8.875H1" stroke="#C7C7C7" stroke-width="1.5" stroke-linecap="round" stroke-linejoin="round"/>
</svg>
