<svg width="17" height="17" viewBox="0 0 17 17" fill="none" xmlns="http://www.w3.org/2000/svg">
<path d="M10.6712 9.21731C11.0265 9.35929 11.2049 9.76816 10.9921 10.086C10.7493 10.4486 10.4357 10.7615 10.0676 11.0043C9.50565 11.3752 8.84367 11.5653 8.17055 11.549C7.49743 11.5328 6.84544 11.3111 6.30193 10.9137C5.94599 10.6533 5.64778 10.3258 5.42272 9.95189C5.22542 9.62412 5.42335 9.22432 5.78503 9.09967C6.14671 8.97501 6.53333 9.1801 6.77795 9.47422C6.87778 9.59425 6.99237 9.70225 7.11975 9.79539C7.43507 10.026 7.81341 10.1547 8.20388 10.1641C8.59444 10.1735 8.97848 10.0632 9.30452 9.84802C9.43627 9.76107 9.55598 9.65877 9.66141 9.54368C9.91988 9.26161 10.316 9.07541 10.6712 9.21731Z" fill="#C7C7C7"/>
<path d="M6.59995 5.77501C6.59995 5.31938 6.23058 4.95001 5.77495 4.95001C5.31932 4.95001 4.94995 5.31938 4.94995 5.77501V6.60001C4.94995 7.05566 5.31932 7.42501 5.77495 7.42501C6.23058 7.42501 6.59995 7.05566 6.59995 6.60001V5.77501Z" fill="#C7C7C7"/>
<path d="M11.55 5.77501C11.55 5.31938 11.1806 4.95001 10.725 4.95001C10.2693 4.95001 9.89996 5.31938 9.89996 5.77501V6.60001C9.89996 7.05566 10.2693 7.42501 10.725 7.42501C11.1806 7.42501 11.55 7.05566 11.55 6.60001V5.77501Z" fill="#C7C7C7"/>
<path fill-rule="evenodd" clip-rule="evenodd" d="M0 8.25C0 3.69365 3.69365 0 8.25 0C12.8063 0 16.5 3.69365 16.5 8.25C16.5 12.8063 12.8063 16.5 8.25 16.5C3.69365 16.5 0 12.8063 0 8.25ZM8.25 1.65C4.60492 1.65 1.65 4.60492 1.65 8.25C1.65 11.8951 4.60492 14.85 8.25 14.85C11.8951 14.85 14.85 11.8951 14.85 8.25C14.85 4.60492 11.8951 1.65 8.25 1.65Z" fill="#C7C7C7"/>
</svg>
