<svg xmlns="http://www.w3.org/2000/svg" width="16" height="18" viewBox="0 0 16 18" fill="none">
  <path d="M0.69672 17.4503C0.606469 17.4514 0.51692 17.4334 0.433233 17.3976C0.349537 17.3616 0.273361 17.3086 0.209077 17.2414C0.135368 17.1642 0.0786605 17.0707 0.0429875 16.9676C0.00732388 16.8643 -0.0064146 16.7541 0.00276622 16.6446L0.293477 12.8252C0.30594 12.6478 0.379349 12.4815 0.499787 12.3577L10.8716 1.35694C11.4495 0.782942 12.2183 0.475347 13.0097 0.501546C13.796 0.508012 14.5503 0.831629 15.1197 1.40667C15.6658 2.00147 15.9799 2.79316 15.9991 3.62316C16.0182 4.45317 15.7409 5.26019 15.2229 5.88258L4.84169 16.9331C4.7255 17.0559 4.57336 17.1331 4.41031 17.1519L0.762365 17.5L0.69672 17.4503ZM1.6345 13.2131L1.43756 15.9384L4.00707 15.6897L14.2288 4.82826C14.4281 4.57807 14.5556 4.27248 14.5959 3.94777C14.6363 3.62306 14.5879 3.29288 14.4565 2.99647C14.3252 2.70004 14.1164 2.44984 13.8549 2.27559C13.5935 2.10133 13.2904 2.01033 12.9816 2.01341C12.7787 1.99974 12.5752 2.0297 12.3834 2.10148C12.1916 2.17327 12.0155 2.2854 11.8656 2.43116L1.6345 13.2131Z" fill="white" stroke="white" stroke-width="0.00064"/>
</svg>