<svg xmlns="http://www.w3.org/2000/svg" width="15" height="18" viewBox="0 0 15 18" fill="none">
  <path d="M12.375 4L11.7243 14.0107C11.6673 14.8875 11.6388 15.3259 11.4542 15.6583C11.2916 15.951 11.0464 16.1863 10.7509 16.3332C10.4153 16.5 9.98682 16.5 9.13004 16.5H5.86994C5.01316 16.5 4.58477 16.5 4.2491 16.3332C3.95358 16.1863 3.70838 15.951 3.54582 15.6583C3.36118 15.3259 3.33269 14.8875 3.2757 14.0107L2.625 4M1 4H14M10.75 4L10.5301 3.32339C10.317 2.66771 10.2104 2.33987 10.0128 2.09748C9.83829 1.88344 9.61421 1.71777 9.36103 1.61565C9.0743 1.5 8.73744 1.5 8.06355 1.5H6.93645C6.26256 1.5 5.9257 1.5 5.63898 1.61565C5.38581 1.71777 5.16169 1.88344 4.98717 2.09748C4.78954 2.33987 4.683 2.66771 4.4699 3.32339L4.25 4" stroke="white" stroke-width="1.5" stroke-linecap="round" stroke-linejoin="round"/>
</svg>