<svg width="86" height="36" viewBox="0 0 86 36" fill="none" xmlns="http://www.w3.org/2000/svg">
<g clip-path="url(#clip0_323_140)">
<rect x="1" y="9" width="26" height="20" rx="7" fill="white"/>
<path d="M1 16C1 12.134 4.13401 9 8 9H20C23.866 9 27 12.134 27 16V18H1V16Z" fill="#F0F0F0" fill-opacity="0.89"/>
<rect x="6.68749" y="16.5208" width="1.04167" height="2.95833" rx="0.520833" fill="#343434" stroke="#343434" stroke-width="1.04167"/>
<rect x="20.2292" y="16.5208" width="1.04167" height="2.95833" rx="0.520833" fill="#343434" stroke="#343434" stroke-width="1.04167"/>
<path d="M9 23C9.57016 23.1682 11.3812 23.6155 11.7502 23.6803C13.2259 23.9395 14.7686 23.9732 16.1437 23.6803C17.5188 23.3874 18.4914 23 18.4914 23" stroke="#343434" stroke-width="2" stroke-linecap="round"/>
<path d="M8 9L8.03793 10.9996" stroke="#343434" stroke-width="2.5" stroke-linecap="round"/>
<path d="M19.9621 9L20 10.9996" stroke="#343434" stroke-width="2.5" stroke-linecap="round"/>
<path d="M11.9874 8L12.0253 9.99964" stroke="#343434" stroke-width="2.5" stroke-linecap="round"/>
<path d="M15.9747 8L16.0126 9.99964" stroke="#343434" stroke-width="2.5" stroke-linecap="round"/>
<path d="M32.4688 24V22.75H33.7188V15.5625H32.4688V14.3125H36.5312C37.4766 14.3125 38.2174 14.3424 38.7539 14.4023C39.293 14.4622 39.7122 14.556 40.0117 14.6836C40.3138 14.8086 40.5911 14.9974 40.8438 15.25C41.0703 15.4766 41.2409 15.7617 41.3555 16.1055C41.4727 16.4466 41.5312 16.8125 41.5312 17.2031C41.5312 18.4193 40.944 19.276 39.7695 19.7734C40.1992 20.1406 40.474 20.7161 40.5938 21.5C40.6068 21.5833 40.6224 21.6914 40.6406 21.8242C40.6589 21.9544 40.6732 22.056 40.6836 22.1289C40.694 22.1992 40.7083 22.2839 40.7266 22.3828C40.7448 22.4792 40.7617 22.5534 40.7773 22.6055C40.793 22.6576 40.8125 22.7096 40.8359 22.7617C40.8594 22.8138 40.8854 22.8516 40.9141 22.875C40.9453 22.8958 40.9792 22.9062 41.0156 22.9062C41.0964 22.9062 41.1654 22.8698 41.2227 22.7969C41.2826 22.724 41.3307 22.6159 41.3672 22.4727C41.4036 22.3268 41.431 22.194 41.4492 22.0742C41.4674 21.9544 41.4883 21.7982 41.5117 21.6055C41.5169 21.5586 41.5208 21.5234 41.5234 21.5L42.625 21.6133C42.599 21.8659 42.5755 22.0625 42.5547 22.2031C42.5365 22.3438 42.5052 22.5182 42.4609 22.7266C42.4167 22.9349 42.3659 23.0964 42.3086 23.2109C42.2513 23.3255 42.1719 23.4531 42.0703 23.5938C41.9714 23.7318 41.8555 23.8359 41.7227 23.9062C41.5898 23.974 41.4258 24.0326 41.2305 24.082C41.0378 24.1315 40.819 24.1562 40.5742 24.1562C40.3971 24.1562 40.2344 24.1484 40.0859 24.1328C39.9375 24.1172 39.7995 24.0911 39.6719 24.0547C39.5469 24.0182 39.4323 23.9779 39.3281 23.9336C39.224 23.8893 39.1263 23.8294 39.0352 23.7539C38.944 23.6784 38.862 23.6029 38.7891 23.5273C38.7188 23.4492 38.6497 23.3516 38.582 23.2344C38.5143 23.1172 38.4544 23.0039 38.4023 22.8945C38.3529 22.7826 38.2995 22.6471 38.2422 22.4883C38.1849 22.3268 38.1341 22.1732 38.0898 22.0273C38.0456 21.8815 37.9948 21.7057 37.9375 21.5C37.8672 21.25 37.8008 21.0534 37.7383 20.9102C37.6784 20.7643 37.6016 20.638 37.5078 20.5312C37.4141 20.4245 37.3021 20.3516 37.1719 20.3125C37.0443 20.2708 36.8828 20.25 36.6875 20.25H36.2188V22.75H37.4688V24H32.4688ZM36.2188 19H36.8438C38.0938 19 38.7188 18.4271 38.7188 17.2812C38.7188 17.0833 38.7044 16.9036 38.6758 16.7422C38.6497 16.5807 38.6003 16.4245 38.5273 16.2734C38.4544 16.1224 38.3607 15.9961 38.2461 15.8945C38.1315 15.793 37.9818 15.7122 37.7969 15.6523C37.612 15.5924 37.3984 15.5625 37.1562 15.5625H36.2188V19ZM45.4297 20.875C45.4531 21.1771 45.5026 21.4466 45.5781 21.6836C45.6536 21.9206 45.7448 22.1146 45.8516 22.2656C45.9609 22.4167 46.0872 22.5417 46.2305 22.6406C46.3737 22.737 46.5208 22.806 46.6719 22.8477C46.8229 22.8867 46.9844 22.9062 47.1562 22.9062C47.7057 22.9062 48.1341 22.8008 48.4414 22.5898C48.7513 22.3763 48.9987 22.0482 49.1836 21.6055L50.2227 21.9648C50.1289 22.2174 50.0091 22.4557 49.8633 22.6797C49.7201 22.901 49.5469 23.1055 49.3438 23.293C49.1406 23.4805 48.9141 23.6419 48.6641 23.7773C48.4167 23.9102 48.1367 24.0143 47.8242 24.0898C47.5117 24.1654 47.1823 24.2031 46.8359 24.2031C46.3229 24.2031 45.8372 24.1133 45.3789 23.9336C44.9232 23.7539 44.526 23.5039 44.1875 23.1836C43.8516 22.8607 43.5846 22.4635 43.3867 21.9922C43.1914 21.5208 43.0938 21.0078 43.0938 20.4531C43.0938 19.8984 43.1914 19.3828 43.3867 18.9062C43.5846 18.4297 43.8516 18.0286 44.1875 17.7031C44.526 17.375 44.9232 17.1185 45.3789 16.9336C45.8372 16.7487 46.3229 16.6562 46.8359 16.6562C47.349 16.6562 47.8333 16.7487 48.2891 16.9336C48.7474 17.1185 49.1445 17.375 49.4805 17.7031C49.819 18.0286 50.0859 18.4297 50.2812 18.9062C50.4792 19.3828 50.5781 19.8984 50.5781 20.4531L50.4805 20.875H45.4297ZM45.457 19.625H48.2148C48.1471 19.026 47.9974 18.5898 47.7656 18.3164C47.5339 18.043 47.2266 17.9062 46.8438 17.9062C46.6536 17.9062 46.4831 17.9375 46.332 18C46.181 18.0599 46.0456 18.1576 45.9258 18.293C45.806 18.4258 45.7057 18.6042 45.625 18.8281C45.5469 19.0495 45.4909 19.3151 45.457 19.625ZM55.5781 13.707C55.9818 13.707 56.3581 13.7292 56.707 13.7734C57.0586 13.8151 57.3529 13.8672 57.5898 13.9297C57.8294 13.9896 58.0521 14.0508 58.2578 14.1133C58.4635 14.1732 58.6693 14.2253 58.875 14.2695C59.0833 14.3112 59.2865 14.332 59.4844 14.332V22.7695H60.2656V24.0195H56.5156V22.7695H57.2969V15.2695C56.8438 15.0612 56.375 14.957 55.8906 14.957C55.6927 14.957 55.5091 14.9961 55.3398 15.0742C55.1732 15.1523 55.026 15.2669 54.8984 15.418C54.7708 15.569 54.6706 15.7643 54.5977 16.0039C54.5247 16.2409 54.487 16.5104 54.4844 16.8125H56.2031V18.0625L54.4844 18.0703V22.7695H55.5781V24.0195H51.5156V22.7695H52.2969V18.0781L51.2031 18.082V16.8125H52.2969C52.2995 16.3333 52.3698 15.9036 52.5078 15.5234C52.6458 15.1406 52.8503 14.8151 53.1211 14.5469C53.3919 14.276 53.7344 14.069 54.1484 13.9258C54.5651 13.7799 55.0417 13.707 55.5781 13.707ZM63.1484 20.875C63.1719 21.1771 63.2214 21.4466 63.2969 21.6836C63.3724 21.9206 63.4635 22.1146 63.5703 22.2656C63.6797 22.4167 63.806 22.5417 63.9492 22.6406C64.0924 22.737 64.2396 22.806 64.3906 22.8477C64.5417 22.8867 64.7031 22.9062 64.875 22.9062C65.4245 22.9062 65.8529 22.8008 66.1602 22.5898C66.4701 22.3763 66.7174 22.0482 66.9023 21.6055L67.9414 21.9648C67.8477 22.2174 67.7279 22.4557 67.582 22.6797C67.4388 22.901 67.2656 23.1055 67.0625 23.293C66.8594 23.4805 66.6328 23.6419 66.3828 23.7773C66.1354 23.9102 65.8555 24.0143 65.543 24.0898C65.2305 24.1654 64.901 24.2031 64.5547 24.2031C64.0417 24.2031 63.556 24.1133 63.0977 23.9336C62.6419 23.7539 62.2448 23.5039 61.9062 23.1836C61.5703 22.8607 61.3034 22.4635 61.1055 21.9922C60.9102 21.5208 60.8125 21.0078 60.8125 20.4531C60.8125 19.8984 60.9102 19.3828 61.1055 18.9062C61.3034 18.4297 61.5703 18.0286 61.9062 17.7031C62.2448 17.375 62.6419 17.1185 63.0977 16.9336C63.556 16.7487 64.0417 16.6562 64.5547 16.6562C65.0677 16.6562 65.5521 16.7487 66.0078 16.9336C66.4661 17.1185 66.8633 17.375 67.1992 17.7031C67.5378 18.0286 67.8047 18.4297 68 18.9062C68.1979 19.3828 68.2969 19.8984 68.2969 20.4531L68.1992 20.875H63.1484ZM63.1758 19.625H65.9336C65.8659 19.026 65.7161 18.5898 65.4844 18.3164C65.2526 18.043 64.9453 17.9062 64.5625 17.9062C64.3724 17.9062 64.2018 17.9375 64.0508 18C63.8997 18.0599 63.7643 18.1576 63.6445 18.293C63.5247 18.4258 63.4245 18.6042 63.3438 18.8281C63.2656 19.0495 63.2096 19.3151 63.1758 19.625ZM72.3594 22.75V24H68.9219V22.75H69.668L71.543 20.4062L69.668 18.0625H68.9219V16.8125H72.9844V18.0625H72.168L73.4375 19.6484L74.7031 18.0625H73.7656V16.8125H77.2031V18.0625H76.4219L74.5469 20.4062L76.4219 22.75H77.2031V24H73.1406V22.75H73.9219L72.6562 21.1641L71.3867 22.75H72.3594ZM84.5469 19.293V22.75H85.3281V24H82.8945L82.5469 23.1875C82.2812 23.5677 81.9727 23.8281 81.6211 23.9688C81.2721 24.1094 80.7839 24.1797 80.1562 24.1797C79.8307 24.1797 79.5273 24.1224 79.2461 24.0078C78.9674 23.8958 78.7292 23.7422 78.5312 23.5469C78.3359 23.3516 78.1823 23.1172 78.0703 22.8438C77.9609 22.5703 77.9062 22.2773 77.9062 21.9648C77.9062 21.4258 78.1172 20.9792 78.5391 20.625C78.9609 20.2682 79.5 20.0898 80.1562 20.0898C80.6849 20.0898 81.1224 20.1406 81.4688 20.2422C81.8151 20.3411 82.112 20.5 82.3594 20.7188V19.0625C82.3594 18.8281 82.3268 18.6328 82.2617 18.4766C82.1992 18.3177 82.1042 18.1966 81.9766 18.1133C81.849 18.0273 81.7057 17.9674 81.5469 17.9336C81.388 17.8997 81.1979 17.8828 80.9766 17.8828C80.7995 17.8828 80.6393 17.9206 80.4961 17.9961C80.5768 18.1654 80.6172 18.3438 80.6172 18.5312C80.6172 18.8776 80.4948 19.1732 80.25 19.418C80.0078 19.6602 79.7135 19.7812 79.3672 19.7812C79.0208 19.7812 78.7253 19.6602 78.4805 19.418C78.2383 19.1732 78.1172 18.8776 78.1172 18.5312C78.1172 18.3542 78.151 18.1875 78.2188 18.0312C78.2891 17.875 78.3854 17.7383 78.5078 17.6211C78.612 17.5117 78.7201 17.4141 78.832 17.3281C78.944 17.2396 79.0846 17.1523 79.2539 17.0664C79.4258 16.9779 79.612 16.9049 79.8125 16.8477C80.013 16.7904 80.2526 16.7448 80.5312 16.7109C80.8125 16.6745 81.1198 16.6562 81.4531 16.6562C81.8854 16.6562 82.2917 16.7201 82.6719 16.8477C83.0521 16.9753 83.3802 17.1523 83.6562 17.3789C83.9323 17.6055 84.1497 17.8841 84.3086 18.2148C84.4674 18.5456 84.5469 18.9049 84.5469 19.293ZM82.3594 22.2656V21.7266C82.1979 21.5729 82.0156 21.444 81.8125 21.3398C81.612 21.2331 81.4258 21.1797 81.2539 21.1797C80.8841 21.1797 80.6237 21.2422 80.4727 21.3672C80.3216 21.4896 80.2461 21.6888 80.2461 21.9648C80.2461 22.2956 80.3112 22.5391 80.4414 22.6953C80.5716 22.8516 80.8138 22.9297 81.168 22.9297C81.3685 22.9297 81.5768 22.8659 81.793 22.7383C82.0117 22.6081 82.2005 22.4505 82.3594 22.2656Z" fill="white"/>
</g>
<defs>
<clipPath id="clip0_323_140">
<rect width="86" height="36" fill="white"/>
</clipPath>
</defs>
</svg>
