<svg width="63" height="63" viewBox="0 0 63 63" fill="none" xmlns="http://www.w3.org/2000/svg">
<g clip-path="url(#clip0_331_3)">
<rect width="63" height="63" rx="31.5" fill="#FFFFA5"/>
<path d="M12 25V25C13.8877 18.611 22.9489 18.6616 25 25V25" stroke="#29230E" stroke-width="4" stroke-linecap="round"/>
<path d="M38 25V25C39.8877 18.611 48.9489 18.6616 51 25V25" stroke="#29230E" stroke-width="4" stroke-linecap="round"/>
<path d="M15 40V40C20.4906 55.9027 42.8635 56.228 48.8141 40.4916L49 40" stroke="#29230E" stroke-width="3.5" stroke-linecap="round"/>
<path d="M15 40L49 40" stroke="#29230E" stroke-width="3.5" stroke-linecap="round"/>
<path d="M18.2088 41.7077C17.9256 41.7735 18.0126 42.8772 18.0126 41.9758C18.0126 41.3125 18.0126 41.6262 18.0126 42.1124C18.0126 42.2812 18.0612 43.4636 18.1107 43.377C18.4219 42.8333 18.4305 41.9384 18.5412 41.3334C18.7392 40.2509 18.4217 42.1377 18.3995 42.2895C18.3199 42.8344 18.2381 43.379 18.1543 43.9234C18.0977 44.2912 18.0961 44.1873 18.1979 43.9335C18.3708 43.5023 18.5771 43.0802 18.7755 42.6587C18.835 42.5324 19.0168 42.0669 19.0697 42.4867C19.1762 43.3309 19.1343 44.1897 19.1951 45.0363C19.2171 45.3437 19.3251 45.0017 19.3476 44.9148C19.495 44.3466 19.6353 43.7725 19.7618 43.2C19.8141 42.9633 19.8762 42.7013 19.8762 42.4564C19.8762 41.9577 19.7587 43.4477 19.7018 43.9436C19.64 44.4835 19.6441 45.0726 19.5057 45.6028C19.4 46.0075 19.5586 44.7702 19.6255 44.3584C19.7978 43.2994 20.4599 40.195 20.5519 41.2626C20.6777 42.7221 20.3203 44.1831 20.383 45.6382C20.3836 45.6522 20.4917 46.071 20.6009 45.8456C20.7941 45.4472 20.6876 44.758 20.7154 44.3382C20.7729 43.4686 20.857 40.8568 20.857 41.728C20.857 43.2527 20.73 44.7757 20.7807 46.3009C20.8041 47.0042 20.9736 47.7166 21.1731 46.6246C21.4134 45.3092 21.7547 43.9885 21.8324 42.6537C21.8796 41.8432 21.9168 44.309 22.2574 45.0565C22.3443 45.2471 23.6236 47.1032 23.6796 46.6955C23.7889 45.9011 23.646 45.0328 23.6252 44.237C23.6049 43.4647 23.6034 42.6926 23.6034 41.9202C23.6034 41.5911 23.4935 41.5481 23.4072 41.9657C23.0533 43.6788 23.1224 45.6349 23.3091 47.3683C23.363 47.8685 23.3132 46.0891 23.3091 46.0277C23.2526 45.1844 23.2214 44.3433 23.211 43.4985C23.2086 43.2972 23.201 42.7176 23.1129 42.9015C22.9719 43.1962 23.0314 43.7231 23.053 44.0043C23.1332 45.0466 23.3153 46.1754 23.7832 47.1356C24.3929 48.3868 24.4759 46.6579 24.5569 46.2554C24.8455 44.8226 25.3453 43.3676 25.3689 41.8999C25.3945 40.3076 24.96 45.073 24.9983 46.6651C25.0075 47.0452 25.0318 47.7284 25.1182 48.1422C25.1427 48.2593 25.1992 48.5255 25.3035 48.4558C25.5871 48.2663 25.3335 46.5807 25.3253 46.4021C25.2685 45.1739 25.1803 43.9462 25.0964 42.7194C25.0846 42.5475 24.9892 42.1057 24.8784 42.2439C24.683 42.4877 24.7044 42.9391 24.6932 43.2101C24.6536 44.1664 24.7024 45.1312 24.7967 46.0834C24.8709 46.8328 24.9085 47.708 25.2108 48.4204C25.3167 48.6699 25.3627 48.3713 25.3743 48.2889C25.5971 46.7033 25.7532 45.1086 25.7612 43.5086C25.7612 43.5059 25.8225 42.627 25.6631 42.6183C25.5042 42.6096 25.4689 43.3342 25.4669 43.3568C25.3707 44.4775 25.751 45.5779 26.2462 46.5892C26.2524 46.602 26.5716 47.2897 26.6875 47.2114C26.8632 47.0928 26.8614 46.5183 26.8891 46.3464C26.9671 45.8642 27.0363 45.3829 27.0363 44.8946C27.0363 43.8879 27.2115 46.9026 27.3632 47.8994C27.3923 48.0907 27.593 49.2177 27.6193 48.3395C27.6469 47.4183 27.6051 46.4853 27.4667 45.5725C27.4101 45.1991 27.2953 44.1664 27.0962 44.495C26.9729 44.6985 27.0343 45.1951 27.0363 45.3904C27.0444 46.1961 27.1146 46.9878 27.2869 47.778C27.492 48.7185 27.7138 48.6023 27.7229 47.6566C27.7364 46.2408 27.9142 44.6829 27.6684 43.2809C27.4229 41.8811 27.5905 46.1241 27.7446 47.5352C27.8889 48.8554 27.9581 50.4096 28.5566 51.6427C28.9013 52.3532 29.2094 51.8677 29.3303 51.3645C29.8794 49.0804 29.7122 46.6223 29.3467 44.3281C29.3347 44.2527 28.9036 42.1833 28.8018 42.7903C28.5294 44.4136 28.3112 46.7015 29.1069 48.2232C29.251 48.4987 29.3126 48.3523 29.3358 48.1372C29.4462 47.1124 29.4116 46.0483 29.3739 45.0211C29.3409 44.1223 29.2576 43.2123 29.0088 42.34C28.9453 42.1172 28.8197 41.7709 28.7527 42.2338C28.6485 42.9539 28.6601 43.7072 28.7146 44.4292C28.7893 45.4197 28.8747 46.6741 29.4883 47.5352C30.3229 48.7063 30.4045 46.6636 30.4256 46.2908C30.471 45.4895 30.435 44.6919 30.3656 43.893C30.3269 43.4469 30.381 42.6288 30.1749 42.1984C29.9989 41.8307 30.0904 43.0001 30.0823 43.4023C30.0711 43.9578 30.0545 44.5213 30.0823 45.0767C30.1071 45.5722 30.3844 45.2192 30.491 44.9553C30.754 44.3043 30.8044 43.5891 30.8397 42.9015C30.8509 42.6827 31.0281 41.6296 30.8179 41.4346C30.794 41.4124 30.7679 41.4805 30.758 41.5104C30.6603 41.8051 30.6441 42.2641 30.6327 42.5272C30.5551 44.3172 30.6252 46.1654 31.0086 47.9247C31.1108 48.3935 31.5435 50.5902 32.3437 50.717C32.7937 50.7884 32.8935 48.8901 32.9049 48.7695C33.0909 46.7949 33.0885 44.6137 32.1039 42.8004C31.537 41.7562 31.4831 44.0448 31.4718 44.2876C31.455 44.6498 31.1882 46.8168 31.7443 46.9889C31.8807 47.0311 31.8423 46.7714 31.8423 46.7157" stroke="#29230E" stroke-width="3" stroke-linecap="round"/>
<path d="M34.7654 41.9399C34.5871 42.0805 34.0615 42.4211 34.6134 42.4671C35.6317 42.552 36.7137 42.2465 37.7206 42.1376C37.7841 42.1308 39.0363 42.0312 38.927 42.0312C37.9318 42.0312 36.9366 42.0275 35.9414 42.0312C35.8027 42.0317 34.502 42.0374 35.4954 42.1224C37.0257 42.2534 38.5827 42.228 40.1131 42.1173C40.5406 42.0864 40.8283 42.0578 41.2283 41.9957C41.5189 41.9506 41.4246 41.9435 41.2435 41.9399C39.7638 41.9106 38.2937 41.7733 36.8183 41.6611C34.7397 41.5031 32.6546 41.3432 30.5684 41.357C29.0678 41.3669 30.9729 41.8071 31.3287 41.8994C33.9986 42.5919 36.6758 42.3593 39.3781 42.6242C39.425 42.6288 39.5621 42.6597 39.515 42.6597C39.3383 42.6597 39.0185 42.6218 38.8814 42.604C38.3995 42.5413 38.1102 42.4887 37.6243 42.3961C37.3653 42.3468 36.6836 42.3041 36.428 42.1427C36.3193 42.074 36.6847 42.1238 36.8133 42.1224C37.7892 42.1117 38.7631 42.1054 39.738 42.0464C41.8384 41.9193 43.9301 41.6207 45.9677 41.0884C47.0381 40.8087 45.4651 41.2814 45.4405 41.2911C44.4841 41.6699 43.5574 42.1002 42.7084 42.6851C41.9027 43.2401 43.9707 42.3432 44.0922 42.2846C44.557 42.0605 45.2017 41.8327 45.5723 41.4533C45.6341 41.3901 44.3999 41.7524 44.2443 41.8335C43.1941 42.3809 42.2082 43.1196 41.2232 43.7749C40.837 44.0318 39.8887 44.8258 40.3514 44.8596C41.0086 44.9077 41.879 44.3751 42.455 44.1348C43.2066 43.8211 42.9933 43.9057 43.6613 43.6228C43.8108 43.5595 44.2195 43.364 44.1328 43.5012C43.7916 44.0404 43.372 44.5574 43.0075 45.0826C42.6687 45.5707 41.4353 46.8366 41.9227 46.4969C42.5705 46.0454 43.2738 45.6558 43.9503 45.2499C44.1155 45.1508 45.7703 44.179 44.8525 44.9914C43.8379 45.8896 42.8081 46.756 41.8315 47.6982C41.3477 48.1649 41.1191 48.4004 40.6454 48.8286C40.4746 48.9829 40.1107 49.4791 40.0979 49.2493C40.0822 48.966 40.7781 48.3262 40.9191 48.1544C41.1862 47.8289 41.4326 47.5276 41.7098 47.2116C41.7932 47.1165 42.2775 46.7135 42.2775 46.5273C42.2775 46.2388 41.2451 46.6746 41.2333 46.6793C40.2452 47.0805 39.3153 47.605 38.3644 48.0834C38.3405 48.0954 37.6029 48.464 37.675 48.3673C38.2934 47.5373 39.1199 46.859 39.9458 46.2485C40.1905 46.0677 41.3036 45.3366 40.3311 45.8734C39.1537 46.5233 38.102 47.3405 37.0363 48.1544C36.4859 48.5748 35.8777 48.9221 35.3332 49.3456C34.6361 49.8877 36.6042 48.1193 37.2391 47.5056C38.0028 46.7673 38.8467 46.1122 39.6012 45.3665C39.6486 45.3197 39.7663 45.1748 39.7025 45.1942C39.4279 45.2774 39.1059 45.6466 38.9169 45.8176C38.2076 46.4593 37.4942 47.0929 36.7575 47.7033C36.5536 47.8722 35.9834 48.3903 36.1036 48.1544C36.4191 47.5351 37.8639 46.3756 37.4824 45.5693C37.2153 45.0049 35.5021 45.672 35.4751 45.6808C35.1689 45.7804 34.8802 45.9272 34.583 46.0508C34.2331 46.1963 34.2727 46.1976 34.5272 46.0356C35.5884 45.3603 36.6914 44.782 37.8271 44.2412C38.0727 44.1242 38.3187 44.0075 38.5671 43.8965C38.6227 43.8717 38.4664 43.9651 38.415 43.9979C37.3221 44.6974 36.2108 45.3614 35.0899 46.0153C34.5853 46.3097 33.042 47.1295 33.5844 46.9125C34.4175 46.5793 35.2417 46.2212 36.0732 45.8835C36.0758 45.8825 37.347 45.2847 37.158 45.6098C36.6763 46.4383 35.7418 47.0721 34.9986 47.6424C34.7826 47.8082 33.9578 48.5583 34.2687 47.7692C34.7724 46.4905 35.5566 45.339 36.0225 44.0435C36.1236 43.7625 36.352 43.184 36.0631 42.9182C35.6559 42.5436 34.8698 43.1575 34.5323 43.3592C34.1348 43.5968 33.6682 43.8485 33.3867 44.2311C33.2201 44.4575 33.9573 44.1943 34.218 44.0891C35.1555 43.7109 36.0877 43.3207 37.0414 42.9841C37.2714 42.9029 37.877 42.6654 37.7662 42.8827C37.3807 43.6395 36.8006 43.7488 36.134 44.1297" stroke="#29230E" stroke-width="3" stroke-linecap="round"/>
<path d="M26 45L26.353 45.5974C28.9427 49.98 35.3935 49.6343 37.5 45V45" stroke="#DA1D1D" stroke-width="3.5" stroke-linecap="round"/>
<path d="M26.5 45H37" stroke="#DA1D1D" stroke-width="3.5" stroke-linecap="round"/>
<path d="M31.056 46.7593C31.577 46.8141 33.1154 47.1375 32.6073 47.0104C32.4812 46.9789 32.3446 46.9211 32.2341 46.8548" stroke="#DA1D1D" stroke-width="3" stroke-linecap="round"/>
</g>
<defs>
<clipPath id="clip0_331_3">
<rect width="63" height="63" rx="31.5" fill="white"/>
</clipPath>
</defs>
</svg>
