<svg width="63" height="63" viewBox="0 0 63 63" fill="none" xmlns="http://www.w3.org/2000/svg">
<g id="sad-emoji">
<g clip-path="url(#clip0_49_217)">
<rect width="63" height="63" rx="31.5" fill="#FFFFA5"/>
<path id="Vector" d="M21 21.2059C21 18.7044 19.3408 16.6765 17.2941 16.6765C15.2475 16.6765 13.5883 18.7044 13.5883 21.2059V25.7353C13.5883 28.2369 15.2475 30.2647 17.2941 30.2647C19.3408 30.2647 21 28.2369 21 25.7353V21.2059Z" fill="#29230E"/>
<path id="Vector_2" d="M48.7608 21.5122C48.7608 18.9663 47.041 16.9024 44.9193 16.9024C42.7977 16.9024 41.0779 18.9663 41.0779 21.5122V26.122C41.0779 28.6679 42.7977 30.7317 44.9193 30.7317C47.041 30.7317 48.7608 28.6679 48.7608 26.122V21.5122Z" fill="#29230E"/>
<path id="Vector 5" d="M21 39.5294V39.5294C24.0858 49.798 38.6479 49.7142 42 39.5294V39.5294" stroke="#29230E" stroke-width="3.5" stroke-linecap="round"/>
</g>
</g>
<defs>
<clipPath id="clip0_49_217">
<rect width="63" height="63" rx="31.5" fill="white"/>
</clipPath>
</defs>
</svg>
