<svg width="63" height="63" viewBox="0 0 63 63" fill="none" xmlns="http://www.w3.org/2000/svg">
<rect width="63" height="63" rx="31.5" fill="#555555"/>
<path d="M20 45H32.9231H44" stroke="#2E2E2E" stroke-width="4.5" stroke-linecap="round"/>
<path d="M48.7729 21.5097C48.7729 18.9638 47.0531 16.8999 44.9315 16.8999C42.8098 16.8999 41.09 18.9638 41.09 21.5097V26.1194C41.09 28.6654 42.8098 30.7292 44.9315 30.7292C47.0531 30.7292 48.7729 28.6654 48.7729 26.1194V21.5097Z" fill="#2E2E2E"/>
<path d="M21.2729 21.5897C21.2729 19.0439 19.553 16.98 17.4315 16.98C15.3099 16.98 13.59 19.0439 13.59 21.5897V26.1995C13.59 28.7455 15.3099 30.8092 17.4315 30.8092C19.553 30.8092 21.2729 28.7455 21.2729 26.1995V21.5897Z" fill="#2E2E2E"/>
</svg>
