<svg width="63" height="63" viewBox="0 0 63 63" fill="none" xmlns="http://www.w3.org/2000/svg">
<rect width="63" height="63" rx="31.5" fill="#C5CEFF"/>
<path d="M21 21.5094C21 19.0079 19.3408 16.98 17.2941 16.98C15.2474 16.98 13.5882 19.0079 13.5882 21.5094V26.0388C13.5882 28.5404 15.2474 30.5682 17.2941 30.5682C19.3408 30.5682 21 28.5404 21 26.0388V21.5094Z" fill="#1A6262" fill-opacity="0.63"/>
<path d="M48.7608 21.5121C48.7608 18.9662 47.041 16.9023 44.9193 16.9023C42.7977 16.9023 41.0779 18.9662 41.0779 21.5121V26.1219C41.0779 28.6678 42.7977 30.7316 44.9193 30.7316C47.041 30.7316 48.7608 28.6678 48.7608 26.1219V21.5121Z" fill="#1A6262" fill-opacity="0.63"/>
<path d="M21 46V46C24.6937 36.15 38.6534 36.2087 42.5 46V46" stroke="#1A6262" stroke-opacity="0.63" stroke-width="4.5" stroke-linecap="round"/>
</svg>
