<svg width="54" height="54" viewBox="0 0 54 54" fill="none" xmlns="http://www.w3.org/2000/svg">
<rect x="2.5" y="2.5" width="49" height="49" rx="24.5" stroke="#FF9C9C" stroke-width="5"/>
<path d="M14.6188 23.6872L21.3689 17.1718" stroke="#FF9C9C" stroke-width="3" stroke-linecap="round"/>
<path d="M14.7273 17.0632L21.2603 23.7963" stroke="#FF9C9C" stroke-width="3" stroke-linecap="round"/>
<path d="M32.6311 23.6872L39.3812 17.1718" stroke="#FF9C9C" stroke-width="3" stroke-linecap="round"/>
<path d="M32.7396 17.0632L39.2726 23.7963" stroke="#FF9C9C" stroke-width="3" stroke-linecap="round"/>
<path d="M18.9591 37.5793C17.7965 37.1146 17.2125 35.7765 17.9091 34.7362C18.7037 33.5495 19.73 32.5257 20.9345 31.7308C22.7737 30.5172 24.9402 29.8951 27.1431 29.9483C29.346 30.0012 31.4799 30.727 33.2586 32.0275C34.4235 32.8797 35.3994 33.9516 36.136 35.1752C36.7817 36.2479 36.1339 37.5563 34.9503 37.9643C33.7666 38.3723 32.5013 37.7011 31.7007 36.7385C31.374 36.3457 30.999 35.9922 30.5821 35.6874C29.5502 34.9327 28.3119 34.5115 27.034 34.4808C25.7558 34.45 24.499 34.811 23.432 35.5151C23.0008 35.7997 22.609 36.1345 22.2639 36.5112C21.418 37.4343 20.1218 38.0437 18.9591 37.5793Z" fill="#FF9C9C"/>
</svg>
