<svg width="54" height="54" viewBox="0 0 54 54" fill="none" xmlns="http://www.w3.org/2000/svg">
<path d="M34.3069 30.8817C35.4695 31.3463 36.0536 32.6844 35.357 33.7248C34.5623 34.9114 33.5361 35.9352 32.3316 36.7301C30.4924 37.9438 28.3259 38.5659 26.123 38.5127C23.92 38.4597 21.7862 37.734 20.0075 36.4334C18.8426 35.5813 17.8666 34.5094 17.1301 33.2857C16.4843 32.213 17.1321 30.9046 18.3158 30.4966C19.4995 30.0887 20.7648 30.7599 21.5654 31.7224C21.8921 32.1153 22.2671 32.4687 22.684 32.7735C23.7159 33.5282 24.9541 33.9494 26.232 33.9802C27.5102 34.011 28.7671 33.65 29.8341 32.9458C30.2653 32.6612 30.6571 32.3264 31.0021 31.9498C31.848 31.0266 33.1443 30.4173 34.3069 30.8817Z" fill="#9CFFAE"/>
<path d="M11.0955 23.2049C10.2598 22.8196 9.84007 21.7101 10.3408 20.8475C10.9119 19.8636 11.6495 19.0147 12.5153 18.3556C13.8373 17.3493 15.3945 16.8335 16.9779 16.8776C18.5613 16.9215 20.095 17.5233 21.3735 18.6017C22.2108 19.3082 22.9123 20.197 23.4417 21.2116C23.9058 22.101 23.4402 23.1859 22.5894 23.5241C21.7386 23.8624 20.8292 23.3059 20.2537 22.5078C20.0189 22.182 19.7493 21.889 19.4497 21.6362C18.708 21.0105 17.818 20.6613 16.8995 20.6358C15.9807 20.6102 15.0774 20.9095 14.3104 21.4934C14.0005 21.7294 13.7189 22.007 13.4709 22.3193C12.8629 23.0847 11.9311 23.59 11.0955 23.2049Z" fill="#9CFFAE"/>
<path d="M42.9045 23.2049C43.7402 22.8196 44.1599 21.7101 43.6592 20.8475C43.0881 19.8636 42.3505 19.0147 41.4847 18.3556C40.1627 17.3493 38.6055 16.8335 37.0221 16.8776C35.4387 16.9215 33.905 17.5233 32.6265 18.6016C31.7892 19.3082 31.0877 20.197 30.5583 21.2115C30.0942 22.101 30.5598 23.1859 31.4106 23.5241C32.2614 23.8624 33.1708 23.3059 33.7463 22.5078C33.9811 22.182 34.2507 21.889 34.5503 21.6362C35.292 21.0105 36.182 20.6613 37.1005 20.6358C38.0193 20.6102 38.9226 20.9095 39.6896 21.4934C39.9995 21.7294 40.2811 22.007 40.5291 22.3193C41.1371 23.0847 42.0689 23.59 42.9045 23.2049Z" fill="#9CFFAE"/>
<path fill-rule="evenodd" clip-rule="evenodd" d="M0 27C0 12.0883 12.0883 0 27 0C41.9116 0 54 12.0883 54 27C54 41.9116 41.9116 54 27 54C12.0883 54 0 41.9116 0 27ZM27 5.4C15.0706 5.4 5.4 15.0706 5.4 27C5.4 38.9294 15.0706 48.6 27 48.6C38.9294 48.6 48.6 38.9294 48.6 27C48.6 15.0706 38.9294 5.4 27 5.4Z" fill="#9CFFAE"/>
</svg>
