<svg width="54" height="54" viewBox="0 0 54 54" fill="none" xmlns="http://www.w3.org/2000/svg">
<path d="M34.924 30.1656C36.0866 30.6303 36.6706 31.9684 35.974 33.0087C35.1794 34.1953 34.1531 35.2192 32.9487 36.0141C31.1094 37.2277 28.943 37.8498 26.74 37.7966C24.5371 37.7437 22.4033 37.0179 20.6245 35.7173C19.4596 34.8652 18.4837 33.7933 17.7471 32.5697C17.1014 31.497 17.7492 30.1885 18.9329 29.7806C20.1165 29.3726 21.3818 30.0438 22.1824 31.0064C22.5091 31.3992 22.8842 31.7526 23.301 32.0575C24.333 32.8121 25.5712 33.2333 26.8491 33.2641C28.1273 33.2949 29.3841 32.9339 30.4512 32.2297C30.8824 31.9452 31.2741 31.6104 31.6192 31.2337C32.4651 30.3106 33.7614 29.7012 34.924 30.1656Z" fill="#9CFFAE"/>
<path d="M21.5999 18.9002C21.5999 17.409 20.391 16.2002 18.8999 16.2002C17.4087 16.2002 16.1999 17.409 16.1999 18.9002V21.6002C16.1999 23.0914 17.4087 24.3002 18.8999 24.3002C20.391 24.3002 21.5999 23.0914 21.5999 21.6002V18.9002Z" fill="#9CFFAE"/>
<path d="M37.7999 18.9002C37.7999 17.409 36.5911 16.2002 35.0999 16.2002C33.6087 16.2002 32.3999 17.409 32.3999 18.9002V21.6002C32.3999 23.0914 33.6087 24.3002 35.0999 24.3002C36.5911 24.3002 37.7999 23.0914 37.7999 21.6002V18.9002Z" fill="#9CFFAE"/>
<path fill-rule="evenodd" clip-rule="evenodd" d="M0 27C0 12.0883 12.0883 0 27 0C41.9116 0 54 12.0883 54 27C54 41.9116 41.9116 54 27 54C12.0883 54 0 41.9116 0 27ZM27 5.4C15.0706 5.4 5.4 15.0706 5.4 27C5.4 38.9294 15.0706 48.6 27 48.6C38.9294 48.6 48.6 38.9294 48.6 27C48.6 15.0706 38.9294 5.4 27 5.4Z" fill="#9CFFAE"/>
</svg>
