<svg width="54" height="54" viewBox="0 0 54 54" fill="none" xmlns="http://www.w3.org/2000/svg">
<path d="M21 18.0356C21 16.3788 19.8807 15.0356 18.5 15.0356C17.1193 15.0356 16 16.3788 16 18.0356V21.0356C16 22.6925 17.1193 24.0356 18.5 24.0356C19.8807 24.0356 21 22.6925 21 21.0356V18.0356Z" fill="#FFCE9C"/>
<path d="M38 18.0356C38 16.3788 36.8807 15.0356 35.5 15.0356C34.1193 15.0356 33 16.3788 33 18.0356V21.0356C33 22.6925 34.1193 24.0356 35.5 24.0356C36.8807 24.0356 38 22.6925 38 21.0356V18.0356Z" fill="#FFCE9C"/>
<path fill-rule="evenodd" clip-rule="evenodd" d="M0 27C0 12.0883 12.0883 0 27 0C41.9116 0 54 12.0883 54 27C54 41.9116 41.9116 54 27 54C12.0883 54 0 41.9116 0 27ZM27 5.4C15.0706 5.4 5.4 15.0706 5.4 27C5.4 38.9294 15.0706 48.6 27 48.6C38.9294 48.6 48.6 38.9294 48.6 27C48.6 15.0706 38.9294 5.4 27 5.4Z" fill="#FFCE9C"/>
<path d="M20 34H33.5" stroke="#FFCE9C" stroke-width="4" stroke-linecap="round"/>
</svg>
