<svg width="54" height="54" viewBox="0 0 54 54" fill="none" xmlns="http://www.w3.org/2000/svg">
<rect x="2.5" y="2.5" width="49" height="49" rx="24.5" stroke="#FF9C9C" stroke-width="5"/>
<path d="M21.0312 18.9631C21.0312 17.3063 19.912 15.9631 18.5312 15.9631C17.1506 15.9631 16.0312 17.3063 16.0312 18.9631V21.9631C16.0312 23.62 17.1506 24.9631 18.5312 24.9631C19.912 24.9631 21.0312 23.62 21.0312 21.9631V18.9631Z" fill="#FF9C9C"/>
<path d="M37.9688 18.8962C37.9688 17.2394 36.8495 15.8962 35.4688 15.8962C34.0881 15.8962 32.9688 17.2394 32.9688 18.8962V21.8962C32.9688 23.5531 34.0881 24.8962 35.4688 24.8962C36.8495 24.8962 37.9688 23.5531 37.9688 21.8962V18.8962Z" fill="#FF9C9C"/>
<path d="M18.9591 37.5971C17.7965 37.1324 17.2125 35.7943 17.9091 34.754C18.7037 33.5674 19.73 32.5435 20.9345 31.7486C22.7737 30.535 24.9402 29.9129 27.1431 29.9661C29.346 30.019 31.4799 30.7448 33.2586 32.0454C34.4235 32.8975 35.3994 33.9694 36.136 35.193C36.7817 36.2657 36.1339 37.5742 34.9503 37.9821C33.7666 38.3901 32.5013 37.7189 31.7007 36.7563C31.374 36.3635 30.999 36.01 30.5821 35.7052C29.5502 34.9506 28.3119 34.5294 27.034 34.4986C25.7558 34.4678 24.499 34.8288 23.432 35.533C23.0008 35.8175 22.609 36.1523 22.2639 36.529C21.418 37.4521 20.1218 38.0615 18.9591 37.5971Z" fill="#FF9C9C"/>
</svg>
